<?xml version="1.0" encoding="UTF-8" standalone="no"?>
<svg
   xmlns:dc="http://purl.org/dc/elements/1.1/"
   xmlns:cc="http://creativecommons.org/ns#"
   xmlns:rdf="http://www.w3.org/1999/02/22-rdf-syntax-ns#"
   xmlns:svg="http://www.w3.org/2000/svg"
   xmlns="http://www.w3.org/2000/svg"
   xmlns:sodipodi="http://sodipodi.sourceforge.net/DTD/sodipodi-0.dtd"
   xmlns:inkscape="http://www.inkscape.org/namespaces/inkscape"
   inkscape:version="1.0 (4035a4fb49, 2020-05-01)"
   sodipodi:docname="mouse - Copy.svg"
   xml:space="preserve"
   style="enable-background:new 0 0 512 512;"
   viewBox="0 0 512 512"
   y="0px"
   x="0px"
   id="Layer_1"
   version="1.1"><metadata
   id="metadata79"><rdf:RDF><cc:Work
       rdf:about=""><dc:format>image/svg+xml</dc:format><dc:type
         rdf:resource="http://purl.org/dc/dcmitype/StillImage" /></cc:Work></rdf:RDF></metadata><defs
   id="defs77" /><sodipodi:namedview
   inkscape:current-layer="Layer_1"
   inkscape:window-maximized="1"
   inkscape:window-y="-8"
   inkscape:window-x="-8"
   inkscape:cy="344.24698"
   inkscape:cx="43.775971"
   inkscape:zoom="0.5253906"
   showgrid="false"
   id="namedview75"
   inkscape:window-height="705"
   inkscape:window-width="1366"
   inkscape:pageshadow="2"
   inkscape:pageopacity="0"
   guidetolerance="10"
   gridtolerance="10"
   objecttolerance="10"
   borderopacity="1"
   bordercolor="#666666"
   pagecolor="#ffffff"
   inkscape:document-rotation="0" />













<g
   id="g44">
</g>
<g
   id="g46">
</g>
<g
   id="g48">
</g>
<g
   id="g50">
</g>
<g
   id="g52">
</g>
<g
   id="g54">
</g>
<g
   id="g56">
</g>
<g
   id="g58">
</g>
<g
   id="g60">
</g>
<g
   id="g62">
</g>
<g
   id="g64">
</g>
<g
   id="g66">
</g>
<g
   id="g68">
</g>
<g
   id="g70">
</g>
<g
   id="g72">
</g>
<g
   id="g10"
   transform="matrix(1.4976664,0,0,0.99862652,-126.45015,-2.5052393)"
   style="stroke-width:0.817696"><path
     d="m 209.192,241 h -91.34 c -4.6,0 -8.945,2.11 -11.789,5.725 -2.844,3.615 -3.873,8.334 -2.79,12.805 8.586,35.465 22.459,71.72 60.249,71.72 37.79,0 51.662,-36.255 60.249,-71.72 1.083,-4.47 0.054,-9.19 -2.79,-12.805 C 218.137,243.11 213.792,241 209.192,241 Z"
     id="path2"
     style="stroke-width:0.817696" /><path
     d="m 163.522,0 c -20.128,0 -37.859,8.034 -51.276,23.233 -24.555,27.816 -32.7,76.349 -24.208,144.251 1.423,11.36 2.75,21.303 4.056,30.398 1.061,7.385 7.387,12.868 14.848,12.868 h 113.16 c 7.46,0 13.787,-5.483 14.848,-12.868 1.311,-9.123 2.637,-19.066 4.056,-30.398 0,-0.001 0,-0.001 0,-0.002 C 247.497,99.582 239.352,51.05 214.798,23.233 201.381,8.034 183.651,0 163.522,0 Z"
     id="path4"
     style="stroke-width:0.817696" /><path
     d="m 394.147,421.75 h -91.34 c -4.6,0 -8.945,2.11 -11.789,5.725 -2.844,3.615 -3.873,8.334 -2.79,12.805 8.586,35.465 22.459,71.72 60.249,71.72 37.79,0 51.662,-36.255 60.249,-71.72 1.083,-4.47 0.054,-9.19 -2.79,-12.805 -2.844,-3.615 -7.189,-5.725 -11.789,-5.725 z"
     id="path6"
     style="stroke-width:0.817696" /><path
     d="m 399.753,203.983 c -13.417,-15.199 -31.147,-23.233 -51.276,-23.233 -20.129,0 -37.859,8.034 -51.276,23.233 -24.555,27.816 -32.7,76.349 -24.208,144.251 1.419,11.332 2.746,21.276 4.056,30.398 1.061,7.385 7.387,12.868 14.848,12.868 h 113.16 c 7.46,0 13.787,-5.483 14.848,-12.868 1.306,-9.095 2.633,-19.038 4.056,-30.398 0,-10e-4 0,-0.002 0,-0.003 8.492,-67.899 0.347,-116.432 -24.208,-144.248 z"
     id="path8"
     style="stroke-width:0.817696" /></g></svg>
