<?xml version="1.0" encoding="UTF-8" standalone="no"?>
<svg
   xmlns:dc="http://purl.org/dc/elements/1.1/"
   xmlns:cc="http://creativecommons.org/ns#"
   xmlns:rdf="http://www.w3.org/1999/02/22-rdf-syntax-ns#"
   xmlns:svg="http://www.w3.org/2000/svg"
   xmlns="http://www.w3.org/2000/svg"
   xmlns:xlink="http://www.w3.org/1999/xlink"
   xmlns:sodipodi="http://sodipodi.sourceforge.net/DTD/sodipodi-0.dtd"
   xmlns:inkscape="http://www.inkscape.org/namespaces/inkscape"
   version="1.1"
   id="Layer_1"
   x="0px"
   y="0px"
   viewBox="0 0 512 512"
   style="enable-background:new 0 0 512 512;"
   xml:space="preserve"
   sodipodi:docname="wall - Copy.svg"
   inkscape:version="1.0 (4035a4fb49, 2020-05-01)"><metadata
   id="metadata79"><rdf:RDF><cc:Work
       rdf:about=""><dc:format>image/svg+xml</dc:format><dc:type
         rdf:resource="http://purl.org/dc/dcmitype/StillImage" /></cc:Work></rdf:RDF></metadata><defs
   id="defs77"><linearGradient
     gradientTransform="translate(-1.0254114e-5)"
     inkscape:collect="always"
     xlink:href="#linearGradient993"
     id="linearGradient995"
     x1="141.56134"
     y1="94.374229"
     x2="625.22925"
     y2="537.93311"
     gradientUnits="userSpaceOnUse" /><linearGradient
     inkscape:collect="always"
     id="linearGradient993"><stop
       style="stop-color:#dbdbdb;stop-opacity:1"
       offset="0"
       id="stop989" /><stop
       style="stop-color:#ffe69c;stop-opacity:0"
       offset="1"
       id="stop991" /></linearGradient></defs><sodipodi:namedview
   inkscape:document-rotation="0"
   pagecolor="#ffffff"
   bordercolor="#666666"
   borderopacity="1"
   objecttolerance="10"
   gridtolerance="10"
   guidetolerance="10"
   inkscape:pageopacity="0"
   inkscape:pageshadow="2"
   inkscape:window-width="1366"
   inkscape:window-height="705"
   id="namedview75"
   showgrid="false"
   inkscape:zoom="0.5253906"
   inkscape:cx="43.775971"
   inkscape:cy="344.24698"
   inkscape:window-x="-8"
   inkscape:window-y="-8"
   inkscape:window-maximized="1"
   inkscape:current-layer="Layer_1" />













<g
   id="g44">
</g>
<g
   id="g46">
</g>
<g
   id="g48">
</g>
<g
   id="g50">
</g>
<g
   id="g52">
</g>
<g
   id="g54">
</g>
<g
   id="g56">
</g>
<g
   id="g58">
</g>
<g
   id="g60">
</g>
<g
   id="g62">
</g>
<g
   id="g64">
</g>
<g
   id="g66">
</g>
<g
   id="g68">
</g>
<g
   id="g70">
</g>
<g
   id="g72">
</g>
<g
   style="stroke-width:1.42421"
   transform="matrix(0.09352302,0,0,-0.09371544,-8.2408774,475.12895)"
   fill="#000000"
   stroke="none"
   id="g14"><path
     style="stroke-width:1.42421"
     d="M 955,4744 C 782,4706 625,4617 495,4485 231,4216 161,3804 321,3462 425,3239 614,3063 834,2987 l 66,-24 -30,-47 C 795,2798 704,2588 678,2472 l -12,-54 -70,6 c -201,18 -334,25 -451,24 -116,-1 -123,-2 -65,-9 36,-4 135,-13 220,-20 179,-14 337,-33 346,-42 3,-3 1,-37 -6,-75 l -11,-69 -162,-7 c -169,-7 -453,-38 -465,-51 -4,-4 18,-5 48,-1 75,9 398,26 493,26 h 77 v -104 -105 l -57,-11 C 416,1950 12,1834 22,1824 c 3,-2 83,16 179,40 185,46 407,92 413,85 2,-2 6,-47 10,-99 l 7,-96 -38,-13 C 469,1696 92,1514 103,1504 c 2,-3 44,14 93,36 117,54 436,182 441,177 2,-3 15,-51 29,-108 65,-272 210,-550 375,-724 l 39,-41 -40,4 C 973,855 714,831 606,809 337,753 152,642 115,516 58,322 299,157 730,94 c 126,-18 398,-17 530,1 240,34 453,118 550,216 l 50,51 62,-15 c 200,-50 488,-62 685,-29 l 101,18 16,-37 c 56,-125 300,-242 595,-284 131,-19 414,-19 541,0 432,63 684,243 605,432 -25,59 -63,102 -127,143 -162,105 -412,167 -694,173 -67,1 -120,5 -118,9 2,3 37,12 77,18 504,82 895,208 1103,356 181,128 261,285 350,686 24,112 56,246 70,298 21,76 258,702 399,1053 15,37 25,70 22,73 -7,8 -280,-527 -385,-756 -104,-226 -134,-318 -196,-600 -66,-297 -104,-402 -191,-525 -147,-207 -499,-364 -1140,-510 l -30,-6 36,38 c 72,77 190,255 233,351 10,23 25,42 33,42 8,0 11,5 8,10 -3,6 10,54 29,108 20,53 47,142 61,196 14,55 27,101 29,104 5,5 252,-93 395,-157 63,-28 116,-49 119,-47 6,6 -265,141 -404,201 l -111,47 8,42 c 5,22 8,67 9,99 0,58 0,59 28,53 126,-25 337,-72 430,-97 63,-17 116,-28 119,-25 8,7 -235,81 -411,124 l -160,40 -4,106 -4,106 h 68 c 88,0 412,-18 484,-26 30,-4 52,-3 48,1 -12,12 -292,44 -455,51 l -151,7 -6,31 c -3,17 -8,52 -11,77 l -7,46 99,11 c 54,6 163,16 243,22 80,7 172,15 205,20 53,7 46,8 -60,9 -115,1 -348,-12 -447,-25 -36,-4 -49,-2 -52,8 -25,89 -72,225 -91,266 l -24,51 h 112 c 347,0 647,174 811,473 77,139 109,273 109,448 0,154 -26,261 -98,405 -129,259 -348,426 -637,485 -451,92 -902,-169 -1047,-605 -34,-105 -56,-263 -47,-341 3,-30 4,-54 1,-54 -3,0 -27,11 -53,24 -139,70 -385,132 -586,146 -105,7 -365,-2 -385,-14 -3,-2 -7,60 -7,137 -1,164 -19,246 -83,382 -48,102 -88,162 -160,239 -115,120 -252,206 -406,252 -76,23 -113,27 -240,30 -109,3 -169,-1 -220,-12 z m 382,-64 c 382,-91 653,-436 653,-830 0,-41 -3,-92 -6,-112 -6,-34 -11,-39 -48,-48 -395,-98 -717,-309 -983,-648 l -18,-23 -58,20 c -207,72 -383,227 -482,426 -65,131 -88,233 -88,380 0,133 14,210 64,333 99,248 337,450 598,506 100,22 270,20 368,-4 z m 2791,-170 c 329,-54 588,-285 689,-617 23,-78 26,-105 26,-228 0,-112 -4,-156 -22,-220 -63,-232 -230,-439 -440,-545 -117,-58 -209,-82 -341,-87 -164,-7 -175,-3 -230,88 -137,228 -356,450 -577,582 -61,38 -62,38 -69,94 -16,132 13,303 76,439 52,113 105,187 193,271 189,179 449,263 695,223 z M 2653,3631 c 603,-131 1058,-537 1248,-1113 18,-54 31,-100 28,-101 -2,-2 -103,-20 -224,-41 -121,-20 -290,-52 -375,-71 -213,-48 -653,-165 -664,-176 -6,-5 -7,-9 -4,-9 21,0 614,-161 793,-215 121,-37 228,-70 237,-72 15,-4 9,-15 -32,-60 -28,-31 -58,-69 -67,-86 -20,-40 -20,-124 0,-163 21,-41 90,-103 171,-154 l 66,-42 -26,-51 c -43,-85 -94,-167 -157,-252 -67,-90 -228,-253 -300,-304 -26,-19 -46,-36 -44,-37 2,-2 67,2 145,8 409,34 848,-83 926,-246 47,-99 -20,-190 -193,-266 -156,-68 -354,-101 -601,-101 -439,0 -790,137 -790,308 0,24 -4,43 -9,43 -5,0 -47,-9 -93,-19 -273,-64 -579,-49 -875,44 -18,6 -22,2 -28,-24 -10,-46 -85,-115 -168,-154 -168,-79 -305,-107 -572,-114 -156,-4 -225,-2 -312,11 -337,50 -543,162 -543,296 0,122 191,232 496,286 108,19 396,25 516,11 l 67,-7 -102,103 c -56,57 -131,144 -167,195 -62,87 -170,276 -170,297 0,6 26,23 57,40 198,103 279,235 212,345 -12,19 -35,52 -51,72 -15,20 -25,39 -21,41 19,12 413,125 673,193 156,41 286,77 289,79 6,6 -3,9 -230,70 -340,90 -626,153 -864,190 -162,25 -156,23 -149,53 40,172 151,399 278,567 260,343 610,555 1051,636 141,25 437,20 578,-10 z M 903,2345 c 293,-47 938,-182 881,-184 -11,-1 -72,6 -135,14 -238,32 -693,64 -908,65 h -33 l 7,58 c 8,61 11,72 25,72 5,0 78,-11 163,-25 z m 3051,-38 c 5,-31 7,-59 5,-61 -2,-2 -123,-9 -269,-15 -268,-11 -482,-29 -690,-56 -169,-22 -172,-17 -10,21 327,76 854,174 920,171 35,-2 35,-3 44,-60 z M 1280,2180 c 263,-17 560,-44 560,-50 0,-4 -73,-10 -162,-14 -244,-10 -637,-49 -829,-82 -31,-5 -38,-2 -52,20 -10,14 -22,26 -28,26 -6,0 -1,-12 11,-27 l 22,-28 -39,-7 c -73,-13 -73,-13 -73,41 0,26 3,70 7,96 l 6,48 216,-7 c 119,-4 281,-11 361,-16 z m 2694,-2 c 3,-13 6,-58 6,-102 0,-67 -2,-77 -16,-72 -9,3 -22,6 -30,6 -9,0 -13,4 -10,9 4,5 -2,7 -13,4 -10,-3 -79,5 -152,16 -254,39 -527,66 -787,77 -89,4 -165,10 -167,14 -2,4 33,10 78,13 45,3 170,13 277,22 236,19 488,32 671,34 134,1 137,1 143,-21 z m -2119,-73 c -5,-3 -93,-23 -195,-45 -207,-46 -399,-95 -569,-146 l -113,-35 -62,59 -61,59 190,26 c 328,45 852,98 810,82 z m 1165,-15 c 344,-32 827,-95 843,-110 4,-4 -20,-33 -54,-64 -45,-42 -68,-56 -83,-53 -12,2 -88,25 -171,50 -200,61 -343,98 -565,147 -187,41 -214,48 -195,49 6,1 107,-8 225,-19 z m -2139,-162 51,-61 -108,-38 c -60,-21 -112,-35 -115,-31 -4,4 -10,44 -14,89 l -7,81 54,10 c 29,5 61,10 70,11 10,0 40,-26 69,-61 z m 3093,32 c 9,-9 -2,-168 -13,-174 -10,-6 -158,47 -162,58 -2,5 19,38 46,72 48,60 52,63 85,57 19,-3 39,-9 44,-13 z M 993,1772 c 72,-128 37,-243 -105,-348 -33,-24 -63,-42 -68,-39 -18,11 -118,350 -106,362 7,7 232,81 240,79 5,-1 22,-25 39,-54 z m 2963,-35 c 13,-12 -92,-356 -115,-380 -12,-12 -129,100 -153,147 -38,75 -23,167 43,263 l 30,42 95,-34 c 53,-19 98,-36 100,-38 z"
     id="path4" /><path
     style="stroke-width:1.42421"
     d="m 1866,3009 c -107,-84 -111,-363 -6,-464 62,-60 150,-18 187,89 27,77 24,225 -7,294 -41,95 -114,128 -174,81 z m 52,-39 c 35,-56 32,-191 -5,-232 -28,-31 -52,-22 -75,29 -37,85 -9,223 46,223 12,0 27,-9 34,-20 z"
     id="path6" /><path
     style="stroke-width:1.42421"
     d="m 2592,2995 c -16,-13 -40,-48 -53,-77 -20,-45 -24,-70 -24,-158 0,-96 3,-110 29,-163 78,-160 213,-106 246,98 34,211 -87,393 -198,300 z m 60,-55 c 40,-79 12,-225 -42,-225 -40,0 -62,53 -58,141 5,118 60,165 100,84 z"
     id="path8" /><path
     style="stroke-width:1.42421"
     d="m 2210,2262 c -98,-54 -116,-192 -34,-269 54,-50 155,-58 213,-16 33,24 71,98 71,138 0,41 -38,114 -72,139 -40,29 -132,33 -178,8 z"
     id="path10" /><path
     style="stroke-width:1.42421"
     d="m 2811,1760 c -285,-214 -623,-216 -981,-6 -34,20 -65,36 -70,36 -18,0 11,-254 45,-385 81,-322 280,-491 533,-455 141,20 243,77 334,187 90,108 155,266 187,457 22,125 31,216 22,215 -3,0 -35,-22 -70,-49 z m -281,-232 v -53 l 124,4 125,3 -15,-57 c -34,-127 -105,-247 -198,-333 -61,-55 -126,-84 -229,-102 -115,-20 -243,18 -316,94 l -34,35 34,57 c 19,31 58,77 86,103 l 53,46 v 124 124 l 28,-6 c 15,-3 55,-9 90,-13 l 62,-7 v -64 c 0,-40 4,-62 10,-58 6,3 10,32 10,65 v 58 l 78,15 c 42,8 80,15 85,16 4,0 7,-23 7,-51 z"
     id="path12" /></g><path
   style="opacity:0.993792;fill:#c87137;stroke:#32daff;stroke-width:1;stroke-opacity:0"
   d="m 310.59077,466.78557 c -30.15226,-2.95838 -52.3925,-12.25538 -56.66612,-23.68792 -0.30919,-0.82713 -0.74963,-3.00727 -0.97872,-4.84473 -0.22911,-1.83745 -0.59009,-3.44829 -0.80216,-3.57964 -0.2121,-0.13134 -3.29292,0.39009 -6.84629,1.15874 -26.98298,5.83687 -51.02978,5.34674 -76.30028,-1.55514 -10.36036,-2.82962 -9.75186,-2.83828 -10.55413,0.15016 -1.10681,4.12282 -8.15929,10.66997 -15.23193,14.14051 -17.16031,8.42055 -35.28042,11.41015 -65.661758,10.83343 -15.558055,-0.29535 -20.746244,-0.95075 -33.887128,-4.28088 -24.582927,-6.22974 -37.7143742,-17.74725 -32.71472,-28.69389 4.231503,-9.2648 21.387694,-17.58547 44.833323,-21.74394 10.908468,-1.93478 37.162132,-2.40506 50.757203,-0.90919 2.17217,0.23901 3.9494,0.32962 3.9494,0.20136 0,-0.12827 -3.18953,-3.57182 -7.08786,-7.65236 -7.943216,-8.31449 -14.212924,-15.62936 -18.205967,-21.24088 -3.562298,-5.00623 -10.406049,-16.42311 -13.289621,-22.17005 -2.724359,-5.42964 -3.014527,-4.85725 4.647804,-9.16833 9.08102,-5.10927 15.451961,-10.87934 18.509057,-16.76337 1.339514,-2.57816 1.639913,-3.90731 1.640871,-7.26005 10e-4,-4.69239 -0.851178,-6.70039 -5.654076,-13.31736 -2.127537,-2.93112 -2.769421,-4.23759 -2.308768,-4.69918 0.776269,-0.77786 25.67299,-8.10232 49.54069,-14.57455 34.03389,-9.229 39.49543,-10.80086 39.54587,-11.3815 0.0693,-0.79848 -11.01774,-3.9685 -35.74274,-10.21959 -25.00277,-6.32131 -43.396714,-10.29135 -62.605421,-13.51243 -7.884184,-1.32208 -15.160257,-2.66784 -16.169062,-2.99057 -1.80469,-0.57734 -1.825357,-0.62646 -1.286003,-3.05537 1.823471,-8.21179 7.843047,-22.85404 13.764131,-33.48044 7.124626,-12.78633 14.463338,-22.69662 24.638695,-33.27237 22.00769,-22.8737 48.30046,-37.11596 81.71763,-44.26479 6.22276,-1.33121 8.82997,-1.54106 22.45027,-1.80693 21.9056,-0.4276 31.94024,0.66175 47.24271,5.12863 35.69894,10.42071 65.62966,32.38521 86.33755,63.35833 5.99663,8.96927 13.88708,25.37678 17.73836,36.8854 l 3.23732,9.67397 -1.60654,0.4161 c -0.88359,0.22887 -10.67588,2.02274 -21.76064,3.98638 -11.08475,1.96366 -23.85451,4.35899 -28.37722,5.32298 -18.04584,3.84636 -65.46609,16.32679 -66.68834,17.55156 -0.30339,0.304 -0.40397,0.70069 -0.22351,0.88151 0.18044,0.18082 5.41348,1.64977 11.62897,3.26434 27.12099,7.04506 84.23032,23.32242 85.30721,24.31436 0.11886,0.10949 -1.82622,2.63826 -4.32239,5.61949 -5.86391,7.0034 -6.68884,8.85226 -6.70518,15.02785 -0.0143,5.40513 0.72238,7.75609 3.55238,11.3366 2.09439,2.64982 9.52078,8.57514 15.30417,12.21077 2.17217,1.3655 3.9494,2.59685 3.9494,2.73635 0,0.13948 -1.07659,2.39924 -2.39242,5.0217 -3.33511,6.64684 -9.28433,16.1753 -14.21179,22.76203 -5.18415,6.92988 -19.27724,21.47807 -26.51585,27.37215 -2.99366,2.43762 -5.44302,4.68716 -5.44302,4.999 0,0.3546 1.9177,0.40626 5.1196,0.13793 28.41071,-2.38099 51.49809,-0.23926 71.19706,6.60471 13.54309,4.70524 21.69542,10.54759 24.05021,17.2355 1.1962,3.39738 1.06167,5.63081 -0.54354,9.0233 -4.95129,10.46415 -25.61789,19.32736 -51.93581,22.2735 -7.04947,0.78915 -31.6748,1.11161 -37.94088,0.49681 z m -93.90812,-81.67548 c 12.2778,-3.19366 21.65848,-10.25877 29.3866,-22.13269 6.87084,-10.55675 11.00995,-22.70334 13.84553,-40.63096 1.93003,-12.20231 2.30177,-16.21895 1.54451,-16.68793 -0.33848,-0.20962 -3.5744,1.73932 -7.19094,4.33095 -14.53311,10.41454 -27.55578,14.8785 -43.43669,14.88942 -15.25615,0.0104 -29.06831,-4.08675 -46.80778,-13.88504 -3.86165,-2.13295 -7.39051,-3.87851 -7.84195,-3.87901 -1.55343,-9.9e-4 -0.0213,16.19583 2.9392,31.07307 4.32828,21.75058 14.24483,37.62861 27.77448,44.47152 3.15726,1.59685 7.60925,3.09722 11.35646,3.82726 3.12634,0.60907 13.88654,-0.19462 18.43058,-1.37659 z m -3.48638,-93.75575 c 2.8916,-1.31618 5.2422,-4.01564 7.20883,-8.27876 1.96654,-4.26291 1.96457,-8.04958 -0.006,-12.33908 -2.29407,-4.99267 -4.73909,-7.43432 -8.55878,-8.54702 -3.90107,-1.13639 -10.65131,-0.87215 -13.33086,0.52185 -2.63857,1.3727 -5.50293,4.46988 -6.90441,7.46562 -1.71197,3.6594 -1.68807,10.469 0.0484,13.77807 1.62322,3.09336 4.52386,5.81235 7.76925,7.28273 3.50392,1.5875 10.41394,1.646 13.77399,0.11659 z m 30.93463,-51.82127 c 5.35063,-3.06098 8.53714,-10.82298 8.96183,-21.83007 0.41131,-10.6605 -1.7428,-18.05231 -6.65348,-22.83131 -5.91809,-5.7594 -12.77013,-3.13017 -17.40951,6.68024 l -1.81534,3.83874 v 11.13971 11.13974 l 1.8972,3.639 c 4.50835,8.6474 9.50073,11.38102 15.0193,8.22395 z m -70.26523,-0.47237 c 4.62618,-1.28727 8.71608,-6.58298 10.38177,-13.44264 1.01083,-4.16282 1.02174,-15.68254 0.0193,-20.32369 -0.99848,-4.62258 -3.91359,-9.89671 -6.73473,-12.18474 -1.92684,-1.56274 -2.66502,-1.79019 -5.80985,-1.79019 -3.03674,0 -3.93538,0.25516 -5.72167,1.62459 -4.61112,3.53506 -7.51184,11.96793 -7.52635,21.88025 -0.0175,12.01182 4.17946,21.85261 10.23056,23.98774 2.87361,1.01394 2.47913,0.99493 5.16102,0.24868 z"
   id="path845" /><path
   style="opacity:0.993792;fill:#c87137;fill-opacity:1;stroke:url(#linearGradient995);stroke-width:1;stroke-opacity:0"
   d="m 73.626323,189.91213 c -20.354926,-7.81876 -35.193519,-21.13298 -44.70684,-40.1141 -6.347564,-12.66479 -8.203767,-21.6983 -7.792225,-37.92241 0.319438,-12.593534 1.138338,-16.792245 5.248901,-26.912669 4.656067,-11.463459 9.788685,-19.026125 18.964724,-27.943606 7.996811,-7.771494 16.795863,-13.482019 26.940744,-17.484389 15.270349,-6.024454 37.371753,-5.958755 53.591083,0.15931 18.87103,7.118294 34.07011,20.944633 43.26498,39.357427 5.80711,11.628764 8.21756,22.023197 8.22595,35.472217 0.003,5.61916 -0.26836,9.92966 -0.71104,11.27378 -0.78436,2.38152 0.42132,1.84595 -12.92127,5.73974 -11.96055,3.49046 -28.48468,11.01013 -39.06532,17.77752 -15.5136,9.92252 -31.312469,24.29351 -42.432466,38.59746 -1.676837,2.15696 -3.180438,3.9191 -3.341341,3.91591 -0.160904,-0.003 -2.530549,-0.8655 -5.26588,-1.91619 z"
   id="path847" /><path
   style="opacity:0.993792;fill:#c87137;stroke:#32daff;stroke-width:1;stroke-opacity:0"
   d="m 354.69858,210.13239 c -1.88818,-0.85921 -3.02402,-2.06898 -5.26588,-5.60862 -14.84428,-23.43732 -31.6453,-40.83895 -52.69627,-54.58007 -3.59734,-2.34818 -7.02017,-5.00279 -7.60626,-5.89914 -1.55278,-2.37471 -1.53784,-19.41742 0.0234,-26.59908 3.50402,-16.11927 10.09551,-29.136407 20.26522,-40.0206 11.43258,-12.235801 26.69043,-20.78613 43.29907,-24.264307 6.74052,-1.411602 20.07193,-1.427664 27.0211,-0.03256 31.14067,6.251754 54.55647,28.787781 63.1732,60.799647 1.22023,4.5333 1.33723,6.17542 1.29491,18.17533 -0.0435,12.32334 -0.14762,13.56582 -1.58207,18.87336 -7.57216,28.01729 -28.4785,49.7262 -55.41907,57.54655 -9.92038,2.8797 -27.77348,3.76364 -32.50729,1.60949 z"
   id="path849" /><path
   style="opacity:0.993792;fill:#c87137;stroke:#32daff;stroke-width:1;stroke-opacity:0"
   d="m 144.13056,270.82228 c -18.67228,-2.42186 -51.534897,-4.94572 -73.170613,-5.61953 -10.921779,-0.34015 -12.545578,-0.51155 -12.541735,-1.32379 0.0052,-1.23926 1.125171,-8.27394 1.529006,-9.60964 0.374824,-1.23974 -0.45169,-1.32445 19.237533,1.97149 21.607479,3.61706 75.316949,14.55692 76.299059,15.54106 0.42193,0.4228 -2.78488,0.15175 -11.35325,-0.95959 z"
   id="path851" /><path
   style="opacity:0.993792;fill:#c87137;stroke:#32daff;stroke-width:1;stroke-opacity:0"
   d="m 56.878748,285.24796 c -0.42851,-1.11895 0.135755,-12.70213 0.722263,-14.82672 0.328226,-1.18899 0.72624,-1.31918 4.033068,-1.31918 4.726711,0 30.076943,1.01183 44.757701,1.78648 21.18066,1.11759 54.79926,4.06192 53.7561,4.70795 -0.36959,0.2289 -4.65128,0.59667 -9.51485,0.81728 -20.50177,0.92996 -50.31936,3.6782 -71.024323,6.54619 l -11.277986,1.5622 -2.07857,-2.43333 c -1.143211,-1.33835 -2.321347,-2.43335 -2.618068,-2.43335 -1.00214,0 -0.548286,1.65849 0.938336,3.42888 0.841257,1.00183 1.229577,1.91368 0.901506,2.11686 -0.316996,0.19631 -2.292367,0.51751 -4.389718,0.71376 -3.289242,0.3078 -3.867271,0.21611 -4.205459,-0.66702 z"
   id="path853" /><path
   style="opacity:0.993792;fill:#c87137;stroke:#32daff;stroke-width:1;stroke-opacity:0"
   d="m 77.699014,293.28699 -5.440217,-5.13013 2.877886,-0.37278 c 1.582826,-0.20504 10.118455,-1.32634 18.968061,-2.4918 26.060516,-3.43207 67.614706,-7.84826 68.212436,-7.24928 0.12632,0.12657 -5.36211,1.48336 -12.19651,3.01506 -23.43013,5.25109 -53.645394,13.14556 -62.96439,16.45096 -1.408129,0.49946 -2.888013,0.9081 -3.288645,0.9081 -0.400631,0 -3.176512,-2.30856 -6.168621,-5.13013 z"
   id="path855" /><path
   style="opacity:0.993792;fill:#c87137;stroke:#32daff;stroke-width:1;stroke-opacity:0"
   d="m 58.134194,306.06005 c -0.438266,-0.7106 -1.755754,-14.59334 -1.417123,-14.93267 0.160008,-0.16033 2.718002,-0.71123 5.684437,-1.22421 5.232284,-0.9048 5.442371,-0.89782 7.02765,0.23332 0.898775,0.64131 3.25513,3.12972 5.236342,5.52981 l 3.602199,4.3638 -6.160915,2.17703 c -8.525913,3.01274 -13.62378,4.41845 -13.97259,3.85292 z"
   id="path857" /><path
   style="opacity:0.993792;fill:#c87137;stroke:#32daff;stroke-width:1;stroke-opacity:0"
   d="m 67.518074,342.67704 c -2.610918,-6.26169 -8.519186,-26.99776 -8.519186,-29.89958 0,-1.28478 0.831099,-1.66491 10.927394,-4.99795 l 10.927393,-3.60742 1.074813,1.3732 c 0.591144,0.75526 2.058697,3.33829 3.26123,5.74006 2.018888,4.03229 2.185705,4.75099 2.177391,9.38081 -0.0082,4.50079 -0.202907,5.38768 -1.903418,8.66532 -1.041928,2.00823 -3.407514,5.19195 -5.256865,7.07495 -3.279125,3.33876 -10.001997,8.32849 -11.221322,8.32849 -0.335149,0 -0.995485,-0.92605 -1.46743,-2.05788 z"
   id="path859" /><path
   style="opacity:0.993792;fill:#c87137;stroke:#32daff;stroke-width:1;stroke-opacity:0"
   d="m 264.66064,271.44661 c 11.84956,-3.88594 83.19592,-17.58838 91.57987,-17.58838 4.16985,0 4.58441,0.52444 5.07798,6.42392 l 0.33624,4.01895 -3.73709,0.34798 c -2.0554,0.19138 -12.29415,0.75063 -22.75277,1.24277 -22.88258,1.07675 -37.61358,2.18883 -54.41405,4.10781 -19.70282,2.25049 -18.10126,2.10647 -16.09018,1.44695 z"
   id="path861" /><path
   style="opacity:0.993792;fill:#c87137;stroke:#32daff;stroke-width:1;stroke-opacity:0"
   d="m 344.24102,342.33591 c -4.124,-3.99779 -6.06389,-6.38649 -7.4074,-9.12115 -1.67536,-3.41016 -1.7992,-4.06814 -1.55647,-8.26974 0.29472,-5.1016 1.79119,-9.00568 5.84784,-15.25623 2.00995,-3.09693 2.58363,-3.61697 3.62596,-3.28694 2.77875,0.87984 16.26323,5.99631 16.54352,6.27717 1.2552,1.25778 -8.98764,34.24522 -10.82381,34.85854 -0.35334,0.11803 -3.15668,-2.22272 -6.22964,-5.20165 z"
   id="path863" /><path
   style="opacity:0.993792;fill:#c87137;stroke:#32daff;stroke-width:1;stroke-opacity:0"
   d="m 324.92567,295.71155 c -16.61282,-4.99529 -37.96342,-10.52375 -56.58601,-14.65222 -6.98704,-1.54896 -12.61848,-2.9017 -12.5143,-3.0061 0.30895,-0.30959 30.27789,2.63927 49.49954,4.87062 18.52393,2.15037 38.99828,4.98358 44.32575,6.13374 l 3.07637,0.66417 -1.17119,1.64818 c -1.32837,1.86935 -7.25559,7.11798 -9.18505,8.13347 -0.7029,0.36994 -1.62442,0.65773 -2.04784,0.63953 -0.42341,-0.0182 -7.35218,-2.01232 -15.39727,-4.43139 z"
   id="path865" /><path
   style="opacity:0.993792;fill:#c87137;stroke:#32daff;stroke-width:1;stroke-opacity:0"
   d="m 361.05544,286.80053 c -1.04587,-0.10105 -1.90158,-0.501 -1.90158,-0.88878 0,-0.45731 -1.18209,-0.73576 -3.3643,-0.79246 -1.85037,-0.0481 -9.02513,-0.89413 -15.94391,-1.88011 -23.28946,-3.31892 -44.00558,-5.34588 -66.40855,-6.49768 -12.08834,-0.6215 -18.10046,-1.13005 -17.73142,-1.49986 0.24745,-0.24795 41.42971,-3.50119 55.17765,-4.35882 15.56435,-0.97094 45.43915,-1.88735 48.66058,-1.49267 2.02137,0.24766 3.14532,0.68986 3.39223,1.33461 0.62712,1.63762 1.04757,13.84555 0.5196,15.08688 -0.38055,0.89473 -0.94937,1.12907 -2.4003,0.98889 z"
   id="path867" /><path
   style="opacity:0.993792;fill:#c87137;stroke:#32daff;stroke-width:1;stroke-opacity:0"
   d="m 357.69113,306.5202 c -4.71026,-1.67554 -10.23921,-4.16155 -10.23921,-4.6039 0,-0.88675 7.11428,-9.9826 8.54003,-10.91869 1.17693,-0.77275 1.83065,-0.80373 4.32213,-0.2048 l 2.93547,0.70566 -0.0434,5.07165 c -0.0238,2.78942 -0.22131,6.25892 -0.43882,7.71002 -0.34071,2.27313 -0.59793,2.65401 -1.85819,2.75141 -0.80452,0.0622 -2.25263,-0.16792 -3.21804,-0.51135 z"
   id="path869" /><path
   style="opacity:0.993792;fill:#ff5555;stroke:#32daff;stroke-width:1;stroke-opacity:0"
   d="m 198.83717,382.18754 c -6.93585,-1.33525 -13.80126,-4.84789 -18.10461,-9.26311 l -2.59953,-2.66713 1.38403,-2.50092 c 2.21602,-4.00434 6.02365,-8.7112 10.2573,-12.67971 l 3.93371,-3.68737 1.54063,1.46134 c 2.96243,2.80995 10.96528,2.80087 13.77599,-0.0156 0.83294,-0.83465 1.51443,-2.02035 1.51443,-2.63489 0,-0.88175 0.47436,-0.61766 2.24979,1.25255 2.24881,2.36885 2.25178,2.36989 6.75768,2.36989 7.84124,0 9.13055,-1.48447 9.13055,-10.51262 0,-5.48502 0.0644,-5.78434 1.31647,-6.12058 0.72406,-0.19443 5.72664,-0.35712 11.11685,-0.36153 8.04655,-0.006 9.80038,0.13992 9.80038,0.81858 0,0.45462 -0.79827,3.27443 -1.77395,6.26623 -3.59938,11.03721 -9.48645,20.6506 -16.96072,27.69633 -4.98193,4.69628 -9.49165,7.22467 -16.37117,9.17855 -4.25938,1.20971 -13.84705,2.00079 -16.96783,1.39999 z"
   id="path906" /><path
   style="opacity:0.993792;fill:#ffffff;stroke:#32daff;stroke-width:1;stroke-opacity:0"
   d="m 198.47107,354.32669 c -1.84436,-0.33856 -3.39695,-1.50433 -4.21262,-3.16309 -0.30195,-0.61403 -0.48715,-1.22504 -0.56548,-1.8656 -0.0755,-0.61771 -0.0791,-9.62304 -0.004,-10.22289 0.3381,-2.70201 2.49611,-4.812 5.209,-5.09308 0.36794,-0.0381 1.57816,-0.0503 3.58112,-0.036 2.64744,0.0188 3.07382,0.0329 3.41324,0.11211 1.2007,0.28048 2.02785,0.72532 2.87951,1.54862 0.78722,0.76098 1.30905,1.64267 1.60097,2.70501 l 0.14241,0.51822 0.0103,2.02105 c 0.007,1.46477 -0.001,1.83564 -0.0319,1.34739 -0.14336,-2.29927 -0.40563,-3.69521 -0.90372,-4.81 -0.85422,-1.91183 -1.9174,-2.5616 -4.65393,-2.8443 -0.87669,-0.0906 -5.60396,-0.0905 -6.33518,7e-5 -1.01703,0.12599 -1.64738,0.36155 -2.24964,0.84067 -0.39607,0.31509 -1.24645,1.19418 -1.46668,1.5162 -0.41256,0.60325 -0.58998,1.31353 -0.68249,2.73216 -0.0725,1.11299 -0.0351,7.97654 0.0483,8.86159 0.1421,1.50654 0.34847,2.46246 0.68248,3.16116 0.38464,0.8046 0.81488,1.23656 1.6511,1.6577 0.86024,0.43324 2.64785,0.8822 4.11141,1.03258 0.3287,0.0339 0.17991,0.0429 -0.72403,0.0447 -0.71248,9.9e-4 -1.27305,-0.0226 -1.49975,-0.0642 z"
   id="path918" /><path
   style="opacity:0.993792;fill:#ffffff;stroke:#32daff;stroke-width:1;stroke-opacity:0"
   d="m 203.8495,354.32126 c 2.77744,-0.36809 4.845,-1.60637 5.74701,-3.44188 0.44584,-0.90726 0.76533,-2.64247 0.89703,-4.87208 0.0296,-0.50053 0.0385,-0.10236 0.0314,1.3992 -0.0103,2.08656 -0.0107,2.10172 -0.14519,2.59989 -0.57139,2.11573 -2.12083,3.66745 -4.22018,4.22639 -0.45605,0.12142 -0.60477,0.1345 -1.68953,0.14852 l -1.18947,0.0154 z"
   id="path920" /><path
   style="opacity:0.993792;fill:#ffffff;stroke:#32daff;stroke-width:1;stroke-opacity:0"
   d="m 199.43635,354.42847 c 0.0344,-0.0346 5.3258,-0.0357 5.36023,-10e-4 0.0148,0.0148 -1.191,0.0269 -2.67956,0.0269 -1.48855,0 -2.69485,-0.0117 -2.68067,-0.0259 z"
   id="path922" /><path
   style="opacity:0.993792;fill:#ffffff;stroke:#32daff;stroke-width:1;stroke-opacity:0"
   d="m 200.75575,354.86268 c -0.64908,-0.0626 -1.36913,-0.18314 -2.0165,-0.33749 -0.62098,-0.14804 -0.69921,-0.21302 -0.15583,-0.12943 0.21764,0.0335 1.56852,0.0541 3.5219,0.0538 3.2894,-6e-4 3.6825,-0.0215 4.30572,-0.22892 0.14159,-0.0471 0.28322,-0.0771 0.31473,-0.0665 0.0985,0.0329 -0.96916,0.34754 -1.64321,0.48431 -1.27335,0.25835 -3.03023,0.34944 -4.32681,0.22433 z"
   id="path924" /><path
   style="opacity:0.993792;fill:#ffffff;stroke:#32daff;stroke-width:1;stroke-opacity:0"
   d="m 200.75575,354.86268 c -0.64908,-0.0626 -1.36913,-0.18314 -2.0165,-0.33749 -0.62096,-0.14803 -0.69926,-0.21305 -0.15583,-0.12939 0.45307,0.0697 6.47456,0.0726 6.9727,0.004 0.19912,-0.0277 0.50165,-0.0876 0.67231,-0.1331 0.56017,-0.14937 0.57816,-0.12442 0.0421,0.0584 -0.66052,0.22542 -1.62218,0.42222 -2.54006,0.51984 -0.76082,0.081 -2.23275,0.09 -2.97481,0.0184 z"
   id="path928" /><path
   style="opacity:0.993792;fill:#ffffff;stroke:#32daff;stroke-width:1;stroke-opacity:0"
   d="m 200.91463,354.36817 c 0.0356,-0.0144 0.0937,-0.0144 0.1293,0 0.0355,0.0143 0.006,0.0262 -0.0647,0.0262 -0.0711,0 -0.10024,-0.0118 -0.0647,-0.0262 z"
   id="path930" /><path
   style="opacity:0.993792;fill:#ffffff;stroke:#32daff;stroke-width:1;stroke-opacity:0"
   d="m 210.58432,343.62971 c 1e-5,-0.262 0.003,-0.36664 0.005,-0.23252 0.003,0.13412 0.003,0.34848 -2e-5,0.47638 -0.003,0.12788 -0.005,0.0181 -0.005,-0.24386 z"
   id="path934" /><path
   style="opacity:0.993792;fill:#ffffff;stroke:#32daff;stroke-width:1;stroke-opacity:0"
   d="m 210.51296,349.24538 c 0.004,-0.11589 0.0136,-0.87441 0.0202,-1.68561 0.0113,-1.38288 0.003,-1.83648 -0.0311,-1.72227 -0.007,0.0252 -0.008,-0.1026 -0.001,-0.28399 0.0155,-0.42752 0.0155,-2.5307 0,-2.92234 -0.006,-0.16627 -0.005,-0.2817 0.001,-0.25651 0.0346,0.11535 0.0427,-0.30815 0.0337,-1.77722 -0.006,-1.06763 -0.003,-1.53444 0.008,-1.46575 0.0116,0.0644 0.021,1.74653 0.0259,4.66293 0.007,4.43191 -4.9e-4,5.34298 -0.0486,5.57901 -0.0126,0.062 -0.0148,0.0302 -0.008,-0.12825 z"
   id="path936" /><path
   style="opacity:0.993792;fill:#ffffff;stroke:#32daff;stroke-width:1;stroke-opacity:0"
   d="m 224.12419,353.09926 0.007,-0.2372 0.23272,-0.0475 c 0.51417,-0.1049 0.92757,-0.26902 1.29504,-0.51414 0.3868,-0.25798 1.23217,-1.17113 1.60758,-1.73646 0.4952,-0.74572 0.68147,-1.49741 0.78334,-3.16116 0.0434,-0.7085 0.0616,-4.66982 0.0269,-5.84295 -0.0767,-2.59221 -0.27539,-4.08791 -0.67305,-5.06578 -0.0434,-0.10679 -0.079,-0.19709 -0.079,-0.20065 -5e-5,-0.004 0.1088,-0.006 0.24187,-0.006 h 0.24196 l 0.10917,0.24847 c 0.23201,0.52803 0.40257,1.16975 0.46568,1.75215 0.0373,0.34365 0.0377,9.66636 5.5e-4,10.01668 -0.0767,0.72152 -0.27726,1.39805 -0.60866,2.05243 -0.57569,1.13676 -1.47929,2.02572 -2.63564,2.59297 -0.30534,0.14977 -0.91775,0.38681 -0.99938,0.38681 -0.0135,0 -0.0207,-0.10355 -0.0166,-0.2372 z"
   id="path940" /><path
   style="opacity:0.993792;fill:#ffffff;stroke:#32daff;stroke-width:1;stroke-opacity:0"
   d="m 227.21958,336.07975 c -0.53327,-1.06345 -1.60196,-1.86917 -2.99745,-2.25989 -2.59281,-0.72596 -7.03474,-0.6623 -9.1134,0.13061 -0.42731,0.163 -0.95358,0.47106 -1.32283,0.77434 l -0.17208,0.14136 -0.26176,-7.1e-4 -0.26176,-6.9e-4 0.22593,-0.21784 c 0.9254,-0.89227 2.18179,-1.45349 3.51054,-1.56814 0.24889,-0.0215 1.21004,-0.0273 3.3486,-0.0202 3.3315,0.0111 3.15388,0.002 3.89093,0.19144 1.51336,0.3884 2.8702,1.44378 3.61921,2.81509 l 0.10968,0.20081 h -0.19416 c -0.10679,0 -0.21192,0.007 -0.23364,0.0151 -0.0294,0.0112 -0.0674,-0.0405 -0.14781,-0.20081 z"
   id="path942" /><path
   style="opacity:0.993792;fill:#ffffff;stroke:#32daff;stroke-width:1;stroke-opacity:0"
   d="m 210.03665,337.37435 c -0.0302,-0.0675 -0.14073,-0.28787 -0.18266,-0.36427 -0.34621,-0.63086 -0.80379,-1.1848 -1.40615,-1.7023 -0.68927,-0.59219 -1.41238,-0.9607 -2.36417,-1.20488 -0.22139,-0.0568 -0.31538,-0.0754 -0.46075,-0.0913 -0.19807,-0.0216 -0.52531,-0.0365 -0.95992,-0.0438 -0.0842,-0.001 -0.18861,-0.004 -0.23199,-0.006 l -0.0788,-0.003 v -0.0178 -0.0178 h 0.28274 c 0.35336,0 0.50832,0.007 0.7549,0.0346 1.24053,0.13866 2.38768,0.66169 3.30946,1.5089 0.0898,0.0826 0.27544,0.26962 0.35911,0.3619 0.31001,0.34194 0.56744,0.70044 0.78936,1.09932 0.0717,0.12897 0.18252,0.35112 0.23236,0.46606 l 0.008,0.0194 -0.017,-4e-5 c -0.0169,-5e-5 -0.017,-1.9e-4 -0.0349,-0.04 z"
   id="path944" /><path
   style="opacity:0.993792;fill:#ffffff;stroke:#32daff;stroke-width:1;stroke-opacity:0"
   d="m 204.35217,335.97424 v -1.44023 l 0.024,0.002 c 0.0132,0.001 0.0744,0.005 0.13598,0.009 0.14794,0.009 0.37953,0.0272 0.53254,0.0414 1.58469,0.14769 2.55712,0.45813 3.27288,1.04484 0.17992,0.14747 0.37032,0.34275 0.52948,0.54305 0.24869,0.31295 0.49394,0.73032 0.71193,1.21157 l 0.013,0.0286 h -2.60988 -2.60989 z"
   id="path946" /><path
   style="opacity:0.993792;fill:#ffffff;stroke:#32daff;stroke-width:1;stroke-opacity:0"
   d="m 209.52666,337.30339 c -0.0979,-0.20849 -0.20277,-0.41026 -0.30069,-0.57829 -0.52862,-0.90705 -1.17313,-1.43635 -2.14487,-1.76147 -0.56435,-0.1888 -1.24132,-0.31256 -2.13926,-0.39111 -0.13705,-0.0119 -0.41824,-0.0325 -0.5074,-0.0369 -0.0707,-0.004 -0.0823,-0.006 -0.0823,-0.0145 0,-0.006 0.009,-0.007 0.0903,-0.004 0.28778,0.01 0.47625,0.0252 0.80794,0.0649 1.67799,0.2012 2.6464,0.57 3.34837,1.27519 0.29789,0.29925 0.54066,0.64345 0.78851,1.1179 0.0679,0.13003 0.20792,0.4241 0.20792,0.43676 0,10e-4 -0.003,0.003 -0.008,0.003 -0.006,0 -0.0208,-0.0268 -0.0603,-0.11107 z"
   id="path948" /><path
   style="opacity:0.993792;fill:#ffffff;stroke:#32daff;stroke-width:1;stroke-opacity:0"
   d="m 204.30722,334.5276 c -0.0103,-0.001 -0.25379,-0.0135 -0.4594,-0.0223 -0.12713,-0.006 -0.13053,-0.006 -0.0594,-0.006 0.0702,-5.3e-4 0.2559,0.003 0.47366,0.0111 0.0866,0.003 0.0919,0.004 0.0897,0.0116 -0.002,0.008 -0.0166,0.0103 -0.0446,0.006 z"
   id="path950" /><path
   style="opacity:0.993792;fill:#ffffff;stroke:#32daff;stroke-width:1;stroke-opacity:0"
   d="m 203.94611,333.95726 c -0.67316,-0.009 -1.4196,-0.0138 -2.38726,-0.0164 -1.01066,-0.003 -1.04334,-0.003 -1.04334,-0.0113 0,-0.008 0.0557,-0.009 1.91757,-0.009 h 1.91756 v 0.0206 0.0206 l -0.0651,-6.9e-4 c -0.0358,-4.2e-4 -0.18856,-0.002 -0.3394,-0.004 z"
   id="path952" /><path
   style="opacity:0.993792;fill:#ffffff;stroke:#32daff;stroke-width:1;stroke-opacity:0"
   d="m 195.57571,335.42682 v -0.0242 l 0.0445,-0.0391 c 0.39544,-0.34729 0.87493,-0.66106 1.35418,-0.88618 0.72379,-0.33998 1.49066,-0.52359 2.30382,-0.55162 0.12245,-0.004 1.27388,-0.006 1.24676,-0.001 -0.0191,0.003 -0.015,0.01 0.007,0.0116 0.0106,7e-4 -0.0474,0.002 -0.12914,0.003 -0.24833,9.9e-4 -0.78288,0.01 -0.9622,0.0144 -0.39185,0.0109 -0.53543,0.0214 -0.78688,0.0574 -1.07716,0.15461 -2.09967,0.61457 -2.93626,1.32081 -0.0314,0.0265 -0.0751,0.0642 -0.097,0.0838 -0.022,0.0196 -0.041,0.0357 -0.0423,0.0357 -0.001,0 -0.002,-0.0109 -0.002,-0.0242 z"
   id="path954" /><path
   id="path956"
   style="opacity:0.993792;fill:#ffffff;stroke:#32daff;stroke-width:1;stroke-opacity:0"
   d="m 199.64462,334.49906 c -0.0671,-10e-4 -0.48644,0.012 -0.69732,0.0219 -0.263,0.0126 -0.4225,0.0307 -0.70826,0.0783 -0.25212,0.042 -0.4761,0.0992 -0.68636,0.1661 0.50728,-0.1515 1.13933,-0.2265 2.04125,-0.2622 0.0488,-0.002 0.072,-0.004 0.0507,-0.004 z m -2.09194,0.26631 c -0.17584,0.0525 -0.33747,0.11426 -0.48908,0.1867 0.15349,-0.0718 0.31724,-0.13201 0.48908,-0.1867 z m -0.48908,0.1867 c -0.25294,0.11833 -0.48911,0.25714 -0.71376,0.43655 -0.15496,0.12377 -0.33582,0.29155 -0.61784,0.57246 -0.11904,0.11858 -0.15619,0.15911 -0.15619,0.16747 0,0.009 0.0333,-0.0224 0.16577,-0.15375 0.33596,-0.3332 0.53951,-0.5151 0.76582,-0.68365 0.1786,-0.13301 0.35986,-0.24527 0.5562,-0.33908 z" /><rect
   style="opacity:0.993792;fill:#ff5555;stroke:#32daff;stroke-width:1;stroke-opacity:0"
   id="rect985"
   width="1.4627433"
   height="10.406852"
   x="210.65869"
   y="340.36945"
   ry="0.78202325"
   rx="0.78202319" /></svg>
