<?xml version="1.0" encoding="UTF-8" standalone="no"?>
<svg
   xmlns:dc="http://purl.org/dc/elements/1.1/"
   xmlns:cc="http://creativecommons.org/ns#"
   xmlns:rdf="http://www.w3.org/1999/02/22-rdf-syntax-ns#"
   xmlns:svg="http://www.w3.org/2000/svg"
   xmlns="http://www.w3.org/2000/svg"
   xmlns:sodipodi="http://sodipodi.sourceforge.net/DTD/sodipodi-0.dtd"
   xmlns:inkscape="http://www.inkscape.org/namespaces/inkscape"
   inkscape:version="1.0 (4035a4fb49, 2020-05-01)"
   sodipodi:docname="wall.svg"
   xml:space="preserve"
   style="enable-background:new 0 0 512 512;"
   viewBox="0 0 512 512"
   y="0px"
   x="0px"
   id="Layer_1"
   version="1.1"><metadata
   id="metadata79"><rdf:RDF><cc:Work
       rdf:about=""><dc:format>image/svg+xml</dc:format><dc:type
         rdf:resource="http://purl.org/dc/dcmitype/StillImage" /></cc:Work></rdf:RDF></metadata><defs
   id="defs77" /><sodipodi:namedview
   inkscape:current-layer="Layer_1"
   inkscape:window-maximized="1"
   inkscape:window-y="-8"
   inkscape:window-x="-8"
   inkscape:cy="256.30253"
   inkscape:cx="256.02836"
   inkscape:zoom="1.0507812"
   showgrid="false"
   id="namedview75"
   inkscape:window-height="705"
   inkscape:window-width="1366"
   inkscape:pageshadow="2"
   inkscape:pageopacity="0"
   guidetolerance="10"
   gridtolerance="10"
   objecttolerance="10"
   borderopacity="1"
   bordercolor="#666666"
   pagecolor="#ffffff" />
<rect
   id="rect2"
   height="485.64774"
   width="249.04019"
   style="fill:#f7e3c6;stroke-width:1"
   y="14.502045"
   x="6.4839764" />
<g
   style="stroke-width:0.8395"
   transform="matrix(1.0092937,0,0,1.4058571,-2.8550186,-102.57351)"
   id="g8">
	<rect
   id="rect4"
   height="345.44601"
   width="246.74699"
   style="fill:#efc27b;stroke-width:0.8395"
   y="83.277"
   x="256" />
	<rect
   id="rect6"
   height="86.361"
   width="197.39799"
   style="fill:#efc27b;stroke-width:0.8395"
   y="342.36099"
   x="256" />
</g>
<g
   style="stroke-width:0.8395"
   transform="matrix(1.0092937,0,0,1.4058571,-2.8550186,-102.57351)"
   id="g14">
	<rect
   id="rect10"
   height="86.361"
   width="197.39799"
   style="fill:#f7e3c6;stroke-width:0.8395"
   y="256"
   x="157.30099" />
	<rect
   id="rect12"
   height="86.361"
   width="197.39799"
   style="fill:#f7e3c6;stroke-width:0.8395"
   y="83.277"
   x="157.30099" />
</g>
<g
   style="stroke-width:0.8395"
   transform="matrix(1.0092937,0,0,1.4058571,-2.8550186,-102.57351)"
   id="g20">
	<rect
   id="rect16"
   height="86.361"
   width="98.698997"
   style="fill:#f4d8aa;stroke-width:0.8395"
   y="83.277"
   x="256" />
	<rect
   id="rect18"
   height="86.361"
   width="98.698997"
   style="fill:#f4d8aa;stroke-width:0.8395"
   y="256"
   x="256" />
</g>
<rect
   id="rect22"
   height="121.41122"
   width="149.42392"
   style="fill:#efc27b;stroke-width:1"
   y="14.502045"
   x="6.4839764" />
<rect
   id="rect24"
   height="121.41122"
   width="149.42392"
   style="fill:#ecb45c;stroke-width:1"
   y="14.502045"
   x="355.14047" />
<rect
   id="rect26"
   height="121.41122"
   width="149.42392"
   style="fill:#efc27b;stroke-width:1"
   y="257.3259"
   x="6.4839764" />
<rect
   id="rect28"
   height="121.41122"
   width="149.42392"
   style="fill:#ecb45c;stroke-width:1"
   y="257.3259"
   x="355.14047" />
<g
   style="stroke-width:0.8395"
   transform="matrix(1.0092937,0,0,1.4058571,-2.8550186,-102.57351)"
   id="g34">
	<rect
   id="rect30"
   height="86.361"
   width="49.348999"
   style="fill:#e9a440;stroke-width:0.8395"
   y="342.36099"
   x="453.39801" />
	<rect
   id="rect32"
   height="86.361"
   width="49.348999"
   style="fill:#e9a440;stroke-width:0.8395"
   y="169.63901"
   x="453.39801" />
</g>
<rect
   id="rect36"
   height="121.41122"
   width="199.23256"
   style="fill:#f4d8aa;stroke-width:1"
   y="378.73712"
   x="56.291611" />
<rect
   id="rect38"
   height="121.41122"
   width="199.23256"
   style="fill:#efc27b;stroke-width:1"
   y="135.9147"
   x="255.52417" />
<rect
   id="rect40"
   height="121.41122"
   width="199.23256"
   style="fill:#f4d8aa;stroke-width:1"
   y="135.9147"
   x="56.291611" />
<path
   id="path42"
   d="M 504.56436,1.4936594 H 6.4839759 c -5.1585001,0 -9.3389946,5.8230601 -9.3389946,13.0083956 V 500.14977 c 0,7.18533 4.1804945,13.00839 9.3389946,13.00839 H 504.56436 c 5.1585,0 9.33899,-5.82306 9.33899,-13.00839 V 14.502055 c 0,-7.1853355 -4.18049,-13.0083956 -9.33899,-13.0083956 z M 364.47944,365.72874 v -95.39443 h 130.74593 v 95.39443 z m -199.23256,0 v -95.39443 h 180.55457 v 95.39443 z m -149.42391,0 v -95.39443 h 130.74592 v 95.39443 z m 230.3622,-216.80566 v 95.39444 H 65.630605 v -95.39444 z m 199.23256,0 v 95.39444 H 264.86316 v -95.39444 z m 49.80764,0 v 95.39444 H 464.09572 V 148.92308 Z M 46.952616,244.31752 H 15.82297 V 148.92308 H 46.952616 Z M 495.22537,122.90629 H 364.47944 V 27.510451 H 495.22537 Z M 345.80145,27.510451 V 122.90488 H 165.24688 V 27.510451 Z m -199.23256,0 V 122.90488 H 15.82297 V 27.510451 Z M 15.82297,391.74553 h 31.129646 v 95.39444 H 15.82297 Z m 49.807635,0 H 246.18517 v 95.39444 H 65.630605 Z m 199.232555,95.39584 v -95.39443 h 180.55457 v 95.39443 z m 199.23256,0 v -95.39443 h 31.12965 v 95.39443 z"
   style="fill:#2e2d31;stroke-width:1" />
<g
   id="g44">
</g>
<g
   id="g46">
</g>
<g
   id="g48">
</g>
<g
   id="g50">
</g>
<g
   id="g52">
</g>
<g
   id="g54">
</g>
<g
   id="g56">
</g>
<g
   id="g58">
</g>
<g
   id="g60">
</g>
<g
   id="g62">
</g>
<g
   id="g64">
</g>
<g
   id="g66">
</g>
<g
   id="g68">
</g>
<g
   id="g70">
</g>
<g
   id="g72">
</g>
</svg>
